<?xml version="1.0" encoding="UTF-8" standalone="no"?>
<!-- Created with Inkscape (http://www.inkscape.org/) -->
<svg
   xmlns:dc="http://purl.org/dc/elements/1.1/"
   xmlns:cc="http://creativecommons.org/ns#"
   xmlns:rdf="http://www.w3.org/1999/02/22-rdf-syntax-ns#"
   xmlns:svg="http://www.w3.org/2000/svg"
   xmlns="http://www.w3.org/2000/svg"
   xmlns:sodipodi="http://sodipodi.sourceforge.net/DTD/sodipodi-0.dtd"
   xmlns:inkscape="http://www.inkscape.org/namespaces/inkscape"
   width="550.92902"
   height="400.62433"
   id="svg2"
   sodipodi:version="0.32"
   inkscape:version="0.46"
   sodipodi:docname="Monogle.svg"
   inkscape:output_extension="org.inkscape.output.svg.inkscape"
   version="1.0">
  <defs
     id="defs4">
    <inkscape:perspective
       sodipodi:type="inkscape:persp3d"
       inkscape:vp_x="0 : 526.18109 : 1"
       inkscape:vp_y="0 : 1000 : 0"
       inkscape:vp_z="744.09448 : 526.18109 : 1"
       inkscape:persp3d-origin="372.04724 : 350.78739 : 1"
       id="perspective10" />
    <inkscape:perspective
       id="perspective2447"
       inkscape:persp3d-origin="372.04724 : 350.78739 : 1"
       inkscape:vp_z="744.09448 : 526.18109 : 1"
       inkscape:vp_y="0 : 1000 : 0"
       inkscape:vp_x="0 : 526.18109 : 1"
       sodipodi:type="inkscape:persp3d" />
  </defs>
  <sodipodi:namedview
     id="base"
     pagecolor="#ffffff"
     bordercolor="#666666"
     borderopacity="1.0"
     gridtolerance="10000"
     guidetolerance="10"
     objecttolerance="10"
     inkscape:pageopacity="0.0"
     inkscape:pageshadow="2"
     inkscape:zoom="1"
     inkscape:cx="270.1829"
     inkscape:cy="215.822"
     inkscape:document-units="px"
     inkscape:current-layer="layer1"
     showgrid="false"
     inkscape:window-width="1670"
     inkscape:window-height="974"
     inkscape:window-x="0"
     inkscape:window-y="24" />
  <metadata
     id="metadata7">
    <rdf:RDF>
      <cc:Work
         rdf:about="">
        <dc:format>image/svg+xml</dc:format>
        <dc:type
           rdf:resource="http://purl.org/dc/dcmitype/StillImage" />
      </cc:Work>
    </rdf:RDF>
  </metadata>
  <g
     inkscape:label="Layer 1"
     inkscape:groupmode="layer"
     id="layer1"
     transform="translate(-68.676026,-302.14777)">
    <path
       sodipodi:type="arc"
       style="opacity:1;fill:#ffffff;stroke:#ffffff;stroke-width:6;stroke-linecap:round;stroke-miterlimit:4;stroke-dasharray:none;stroke-opacity:1"
       id="path2389"
       sodipodi:cx="387"
       sodipodi:cy="193.12433"
       sodipodi:rx="144"
       sodipodi:ry="135.5"
       d="M 530.99995,193.23837 A 144,135.5 0 1 1 530.99996,193.22807 L 387,193.12433 z"
       transform="matrix(1.0886052,0,0,1.0720233,23.385803,256.23833)"
       sodipodi:start="0.00084160167"
       sodipodi:end="6.2839509" />
    <path
       id="path2467"
       d="M 140.56954,701.75723 C 138.16459,700.78486 110.9793,682.17767 102.67011,675.81666 C 99.855927,673.6623 97.296277,670.91632 96.981987,669.7145 C 96.644887,668.42543 100.09469,654.76432 105.39461,636.40072 C 110.33583,619.27997 117.54465,594.02208 121.4142,580.27208 C 125.28376,566.52208 131.11309,545.96812 134.36828,534.5966 C 137.62347,523.22509 140.2868,513.63227 140.2868,513.27922 C 140.2868,512.18023 136.85638,513.63141 118.03303,522.69331 C 76.229327,542.81837 75.949607,542.93498 72.522257,541.66493 C 71.276757,541.20339 69.806657,539.63941 69.255367,538.18941 C 68.278425,535.61986 70.281157,437.34897 72.090187,399.08919 C 72.896747,382.03096 73.597287,379.70867 78.308067,378.47677 C 79.993397,378.03605 94.423277,384.60978 146.16836,409.39146 C 152.42821,412.38942 157.72957,414.66265 157.94914,414.44307 C 158.16872,414.22349 160.62529,401.94519 163.40819,387.15796 C 166.19109,372.37073 169.12577,359.23949 169.9297,357.97744 C 170.73363,356.7154 172.55945,355.23872 173.98707,354.69594 C 175.61308,354.07773 202.47317,353.74531 245.88805,353.8061 L 315.19334,353.90314 L 323.49007,346.7766 C 340.58862,332.08965 364.04314,318.79363 385.13697,311.82988 C 407.04562,304.59713 434.55134,301.16771 457.0368,302.86539 C 514.3865,307.19537 564.15832,335.19303 593.88427,379.8449 C 637.79875,445.80959 624.16841,531.96057 561.65615,583.54368 C 555.95301,588.24974 551.2868,592.70411 551.2868,593.44229 C 551.2868,594.18047 555.1316,604.34416 559.83081,616.02826 C 564.53001,627.71236 568.42468,638.55146 568.48563,640.11515 C 568.58107,642.56349 564.47884,647.07585 538.93959,672.61515 L 509.28272,702.27208 L 326.03476,702.4629 C 219.79384,702.57353 141.85503,702.27698 140.56954,701.75723 z M 572.51814,522.39091 C 586.2638,502.28799 593.24084,472.28019 590.51293,444.99643 C 587.67825,416.64478 577.88218,393.87113 562.32645,379.46928 C 556.91147,374.45596 553.43359,372.26803 554.46248,374.52208 C 554.65077,374.93458 556.64961,378.87208 558.90433,383.27208 C 569.50312,403.95516 574.66556,429.50332 574.66556,461.27208 C 574.66556,486.86944 571.90333,504.94612 564.821,525.69723 C 563.42719,529.78107 562.2868,533.35276 562.2868,533.63432 C 562.2868,534.94503 568.91306,527.66331 572.51814,522.39091 z M 316.87901,514.60309 C 310.37252,476.15602 313.98196,432.4186 325.90157,405.27208 C 327.83354,400.87208 329.65872,396.70958 329.95751,396.02208 C 331.26737,393.00823 327.44301,395.21402 322.74504,400.18206 C 314.12007,409.30283 307.38209,424.76367 304.18389,442.77208 C 302.46789,452.43456 302.46789,479.1096 304.18389,488.77208 C 306.45438,501.55675 312.46736,518.4685 316.54787,523.54625 C 318.40817,525.86118 318.47568,524.03786 316.87901,514.60309 z"
       style="fill:#b6f2f4;stroke-width:5.9000001;stroke-miterlimit:4;stroke-dasharray:none" />
    <path
       id="path2465"
       d="M 124.96116,690.52208 C 102.07965,674.80406 98.357567,671.90222 97.695707,669.26516 C 97.332627,667.81855 102.93965,646.622 112.68166,612.6129 C 121.243,582.72545 131.03522,548.37208 134.44215,536.27208 C 137.84908,524.17208 140.85094,513.65765 141.11295,512.90668 C 141.7938,510.95527 139.07305,511.95711 123.7868,519.2866 C 116.6368,522.71489 107.6368,526.97972 103.7868,528.764 C 99.936797,530.54828 92.149667,534.24764 86.482077,536.98479 C 75.523217,542.27734 72.343097,542.61431 70.250727,538.70469 C 69.248162,536.83137 70.556177,467.64943 72.839707,401.77208 C 73.699477,376.96856 74.545427,376.05708 89.954237,383.3318 C 119.16189,397.12115 150.98046,412.35074 154.69342,414.31845 C 156.29206,415.16566 157.92088,415.50182 158.31302,415.06546 C 158.70516,414.6291 161.33445,401.89708 164.15589,386.77208 C 168.83321,361.69817 169.51326,359.07189 171.86429,357.00295 L 174.4428,354.73382 L 244.88013,354.79219 L 315.31745,354.85056 L 323.55212,347.711 C 366.28931,310.65738 425.55131,295.34997 481.7868,306.83889 C 526.53691,315.98135 567.93242,342.67056 592.01656,377.90809 C 611.82582,406.89103 621.4898,443.03627 618.35213,476.40843 C 616.93725,491.45692 612.84933,508.38399 607.70893,520.47925 C 596.53071,546.78141 577.31295,571.57003 556.06595,587.09257 C 552.91948,589.3913 550.33198,591.83034 550.31595,592.51267 C 550.29992,593.19499 554.36611,603.96007 559.35194,616.43506 C 564.91119,630.34483 568.2126,639.92037 567.88835,641.19448 C 567.59756,642.33716 554.16314,656.43458 538.03408,672.52208 L 508.70854,701.77208 L 325.02344,701.77208 L 141.33835,701.77208 L 124.96116,690.52208 z M 475.5165,603.85734 C 481.96783,602.73295 492.87279,599.98247 499.74974,597.74516 C 511.97442,593.76804 534.21089,583.32919 539.91947,578.88759 C 541.4965,577.66057 545.9368,574.34839 549.7868,571.5272 C 558.96026,564.8051 572.35636,551.10175 579.48579,541.14704 C 590.89872,525.21135 598.17499,508.90453 602.4157,489.75898 C 605.71981,474.84188 605.71981,452.70228 602.4157,437.78518 C 596.45729,410.88469 584.28312,388.88686 564.25037,368.82322 C 541.46742,346.00513 509.73454,329.83572 475.4645,323.5826 C 458.85001,320.55102 429.72359,320.55102 413.1091,323.5826 C 396.76338,326.56514 380.97792,331.82753 365.7868,339.35842 C 349.35159,347.50606 336.46226,356.66546 324.32323,368.82322 C 304.29048,388.88686 292.11631,410.88469 286.1579,437.78518 C 282.85379,452.70228 282.85379,474.84188 286.1579,489.75898 C 292.11631,516.65947 304.29048,538.6573 324.32323,558.72094 C 350.0688,584.50622 384.83151,600.68872 425.2868,605.72082 C 436.72821,607.14397 462.04873,606.20461 475.5165,603.85734 z M 422.05084,507.83461 C 414.48587,505.39571 408.06704,499.24169 403.35779,489.91272 C 400.07725,483.414 397.2868,471.3988 397.2868,463.77208 C 397.2868,451.43404 402.51351,436.13922 409.41649,428.27715 C 420.12778,416.07766 436.44582,416.07766 447.15711,428.27715 C 454.06009,436.13922 459.2868,451.43404 459.2868,463.77208 C 459.2868,476.11012 454.06009,491.40494 447.15711,499.26701 C 440.74126,506.57426 429.7625,510.3208 422.05084,507.83461 z"
       style="fill:#fbd696;stroke-width:5.9000001;stroke-miterlimit:4;stroke-dasharray:none" />
    <path
       id="path2463"
       d="M 124.96116,690.52208 C 102.91682,675.37914 98.492337,671.99504 97.772317,669.72647 C 97.415697,668.60284 103.64591,645.15947 112.70547,613.53527 C 133.92932,539.44913 141.28983,513.41926 141.28819,512.45469 C 141.2861,511.22625 137.86639,512.4957 126.2868,518.02344 C 120.5118,520.78025 111.65506,524.97906 106.60514,527.35413 C 101.55523,529.7292 93.230227,533.68395 88.105137,536.14247 C 75.723897,542.0818 73.983147,542.46843 71.373457,539.85874 C 68.922524,537.40781 69.002091,540.56057 70.273437,496.27208 C 70.810237,477.57208 71.721507,444.73474 72.298477,423.30022 C 73.402437,382.28805 73.605207,380.75796 78.126227,379.32304 C 79.325157,378.94252 84.741677,380.96928 92.902877,384.85219 C 99.989027,388.22362 109.6118,392.78746 114.2868,394.99406 C 118.9618,397.20067 128.6368,401.82255 135.7868,405.26492 C 142.9368,408.70729 150.78752,412.48143 153.23283,413.65189 C 155.67816,414.82236 158.00763,415.44073 158.40945,415.02604 C 158.81127,414.61136 161.41945,402.21172 164.20542,387.47128 C 166.99138,372.73084 169.73472,359.80366 170.30172,358.7442 C 170.86872,357.68474 172.21419,356.34613 173.29163,355.76949 C 174.60854,355.06471 198.20775,354.74661 245.29239,354.79899 L 315.33416,354.87692 L 323.56048,347.75995 C 391.46226,289.01507 494.14434,288.28854 562.92382,346.06633 C 590.26461,369.0338 609.54205,401.81181 616.4299,437.04432 C 619.49834,452.7399 619.49834,474.80426 616.4299,490.49984 C 612.14567,512.4144 602.67157,534.32694 589.53256,552.71042 C 581.96553,563.29785 565.80879,579.96407 556.51217,586.77208 C 553.13245,589.24708 550.34913,591.93205 550.32701,592.73867 C 550.3049,593.54529 554.36658,604.45951 559.35298,616.99247 C 564.4836,629.88793 568.17642,640.5445 567.85996,641.54156 C 567.55241,642.51059 554.11752,656.45888 538.00465,672.53775 L 508.70854,701.77208 L 325.02344,701.77208 L 141.33835,701.77208 L 124.96116,690.52208 z M 525.52846,669.0306 C 537.49555,657.07279 547.2868,646.88374 547.2868,646.38828 C 547.2868,645.86944 542.72821,645.76258 536.5368,646.13629 C 520.47456,647.10579 400.45177,654.49262 363.7868,656.76822 C 346.1868,657.86055 298.9368,660.78271 258.7868,663.2619 C 218.6368,665.74109 171.67003,668.67009 154.4162,669.7708 C 137.16237,670.8715 122.38737,671.77208 121.58287,671.77208 C 118.65145,671.77208 121.03031,673.91805 133.2108,682.26166 L 145.6348,690.77208 L 324.70246,690.77208 L 503.77013,690.77208 L 525.52846,669.0306 z M 475.5165,603.85734 C 481.96783,602.73295 492.87279,599.98247 499.74974,597.74516 C 511.97442,593.76804 534.21089,583.32919 539.91947,578.88759 C 541.4965,577.66057 545.9368,574.34839 549.7868,571.5272 C 558.96026,564.8051 572.35636,551.10175 579.48579,541.14704 C 590.89872,525.21135 598.17499,508.90453 602.4157,489.75898 C 605.71981,474.84188 605.71981,452.70228 602.4157,437.78518 C 596.45729,410.88469 584.28312,388.88686 564.25037,368.82322 C 541.46742,346.00513 509.73454,329.83572 475.4645,323.5826 C 458.85001,320.55102 429.72359,320.55102 413.1091,323.5826 C 396.76338,326.56514 380.97792,331.82753 365.7868,339.35842 C 349.35159,347.50606 336.46226,356.66546 324.32323,368.82322 C 304.29048,388.88686 292.11631,410.88469 286.1579,437.78518 C 282.85379,452.70228 282.85379,474.84188 286.1579,489.75898 C 292.11631,516.65947 304.29048,538.6573 324.32323,558.72094 C 350.0688,584.50622 384.83151,600.68872 425.2868,605.72082 C 436.72821,607.14397 462.04873,606.20461 475.5165,603.85734 z M 422.05084,507.83461 C 414.48587,505.39571 408.06704,499.24169 403.35779,489.91272 C 400.07725,483.414 397.2868,471.3988 397.2868,463.77208 C 397.2868,451.43404 402.51351,436.13922 409.41649,428.27715 C 420.12778,416.07766 436.44582,416.07766 447.15711,428.27715 C 454.06009,436.13922 459.2868,451.43404 459.2868,463.77208 C 459.2868,476.11012 454.06009,491.40494 447.15711,499.26701 C 440.74126,506.57426 429.7625,510.3208 422.05084,507.83461 z M 114.23084,474.93559 C 118.32507,472.82818 122.02326,470.46677 122.44905,469.68801 C 123.86526,467.09779 134.2868,441.90591 134.2868,441.07274 C 134.2868,439.93337 131.39984,438.19992 119.32538,432.08926 C 113.5716,429.17737 108.55601,427.12728 108.17963,427.5335 C 107.23983,428.5478 103.98955,476.4821 104.77445,477.7521 C 105.6967,479.24433 106.08412,479.12894 114.23084,474.93559 z"
       style="fill:#f5b74a;stroke-width:5.9000001;stroke-miterlimit:4;stroke-dasharray:none" />
    <path
       id="path2459"
       d="M 127.08356,691.10904 C 113.18937,681.71808 100.58855,672.37626 99.009667,670.296 C 97.818247,668.72623 98.301407,666.85094 114.21695,611.27208 C 136.24992,534.33043 142.2868,512.90942 142.2868,511.6702 C 142.2868,509.97179 137.9495,511.36306 127.2868,516.48175 C 122.0618,518.99004 113.7368,522.9489 108.7868,525.27923 C 103.8368,527.60955 94.964447,531.81138 89.070467,534.61663 C 75.838257,540.91451 74.056207,541.39863 71.930557,539.27298 C 69.996417,537.33884 70.030517,539.57039 71.273437,496.27208 C 71.810237,477.57208 72.720177,444.78196 73.295517,423.40514 C 73.870857,402.02833 74.778787,383.7213 75.313137,382.72287 C 77.222077,379.15597 79.736257,379.64964 93.863957,386.36542 C 101.52152,390.00554 111.3868,394.68926 115.7868,396.77368 C 120.1868,398.85811 131.40457,404.22662 140.71519,408.70371 C 154.44824,415.30737 157.8801,416.60116 158.89667,415.55798 C 159.58588,414.85073 162.42701,402.21172 165.21029,387.47128 C 167.99357,372.73084 170.7119,359.84628 171.25102,358.83893 C 171.79014,357.83158 172.98443,356.71835 173.905,356.3651 C 174.82557,356.01184 207.28551,355.75715 246.03821,355.79911 L 316.49765,355.8754 L 322.14223,350.49887 C 339.28808,334.16724 364.30845,320.01593 389.58331,312.35478 C 439.2783,297.29155 491.07288,302.96575 536.36228,328.43471 C 563.15295,343.50072 588.20729,369.73367 601.96142,397.11976 C 607.6276,408.40181 613.66599,426.45883 615.89023,438.77208 C 618.20623,451.59326 618.20623,475.9509 615.89023,488.77208 C 612.23737,508.99406 603.34627,530.582 591.17864,548.77281 C 583.90146,559.65231 567.3642,577.20315 556.67763,585.3884 C 552.61267,588.5019 549.2868,591.75941 549.2868,592.62729 C 549.2868,593.49517 553.36658,604.45951 558.35298,616.99247 C 563.48571,629.89323 567.17647,640.54433 566.85979,641.54211 C 566.55213,642.51145 553.34195,656.23474 537.50382,672.03831 L 508.70723,700.77208 L 325.04377,700.77208 L 141.38031,700.77208 L 127.08356,691.10904 z M 527.29513,668.15958 L 549.7868,645.54708 L 535.7868,646.19112 C 528.0868,646.54534 504.2368,647.93079 482.7868,649.26991 C 442.97749,651.75518 407.62847,653.94371 264.7868,662.76672 C 147.70612,669.99854 118.85938,671.86617 118.48691,672.23863 C 118.30485,672.4207 124.12129,676.6652 131.41233,681.67087 L 144.66877,690.77208 L 324.73612,690.77208 L 504.80347,690.77208 L 527.29513,668.15958 z M 156.40928,660.29659 C 178.06692,658.93506 225.0368,656.01462 260.7868,653.80672 C 551.79716,635.83404 552.65968,635.7785 553.45183,634.95958 C 554.09645,634.29319 541.48701,601.63896 540.01769,600.16964 C 539.61598,599.76792 533.54969,602.19822 526.53705,605.57029 C 481.89424,627.03706 432.38936,630.43389 385.52255,615.24613 C 371.50002,610.70196 349.22227,599.51772 337.2868,591.03005 C 309.77387,571.46476 287.07224,541.03947 276.84326,510.02208 C 275.34687,505.48458 273.77065,501.77208 273.34054,501.77208 C 272.91042,501.77208 271.76327,503.90958 270.7913,506.52208 C 259.97041,535.60687 238.04312,552.021 215.54748,547.87601 C 196.12022,544.2964 180.34341,527.49424 172.68018,502.22274 C 170.22968,494.14157 169.96602,491.76638 169.96602,477.77208 C 169.96602,463.77778 170.22968,461.40259 172.68018,453.32142 C 180.34341,428.04992 196.12022,411.24776 215.54748,407.66815 C 234.30927,404.21115 254.41609,415.99409 265.23237,436.78434 C 270.06455,446.0724 270.40736,446.00198 272.2248,435.34805 C 275.26327,417.53632 284.46275,395.88142 296.61279,377.94054 C 300.83349,371.70819 304.2868,366.41728 304.2868,366.18297 C 304.2868,365.94865 276.2743,365.87285 242.0368,366.01451 L 179.7868,366.27208 L 174.08757,396.27208 C 170.95299,412.77208 168.36549,426.35244 168.33757,426.45065 C 167.98731,427.6826 164.6741,429.77208 163.0709,429.77208 C 160.74567,429.77208 150.98251,425.40242 121.94299,411.36463 C 111.0289,406.08873 101.9307,401.77208 101.72477,401.77208 C 101.51884,401.77208 97.740407,400.00799 93.328267,397.85189 C 88.567467,395.52541 85.055587,394.33717 84.689777,394.92907 C 84.350747,395.47762 83.472217,419.62921 82.737477,448.59926 C 82.002737,477.56931 81.198297,506.78458 80.949837,513.52208 C 80.597257,523.08319 80.780867,525.77208 81.786357,525.77208 C 82.494897,525.77208 97.802307,518.79708 115.80284,510.27208 C 133.80337,501.74708 149.37611,494.77208 150.40893,494.77208 C 152.75788,494.77208 156.27572,498.19387 156.32034,500.52208 C 156.35469,502.31455 149.54785,526.61866 125.16262,611.77208 C 117.52374,638.44708 111.27669,660.83458 111.28028,661.52208 C 111.28881,663.15692 110.62233,663.17501 156.40928,660.29659 z M 95.260157,491.23998 C 94.227987,489.99629 94.390837,483.75915 96.125227,458.10748 C 97.407067,439.14903 98.715867,425.96001 99.396757,425.13959 C 100.02097,424.38746 101.54649,423.77208 102.7868,423.77208 C 107.47324,423.77208 107.62055,425.01896 105.89452,450.07744 C 105.01027,462.9149 104.2868,474.87821 104.2868,476.66257 C 104.2868,480.78758 103.05179,481.1112 124.76017,471.29781 C 132.27889,467.89894 135.03982,467.32221 136.79979,468.78286 C 138.60888,470.28427 138.75798,475.15244 137.0368,476.52139 C 134.43959,478.5871 101.13948,492.77208 98.887297,492.77208 C 97.591717,492.77208 95.959497,492.08263 95.260157,491.23998 z M 466.98558,606.2256 C 489.20235,603.31422 506.5588,597.86828 526.77371,587.46585 C 542.242,579.506 552.14613,572.12084 565.79874,558.36626 C 581.99136,542.05272 592.46159,525.46372 599.26072,505.34924 C 604.4466,490.00736 605.7184,481.81903 605.7184,463.77208 C 605.7184,451.6874 605.24065,445.05955 603.93305,439.0039 C 600.06533,421.09206 592.30574,402.97652 582.03686,387.88508 C 574.62159,376.98738 554.8169,357.54591 543.329,349.88711 C 489.90003,314.26692 421.69718,309.96221 364.61507,338.60735 C 348.33256,346.77829 336.94419,355.03462 323.75188,368.23228 C 306.65244,385.33865 296.27438,401.60009 289.31288,422.19492 C 284.127,437.5368 282.8552,445.72513 282.8552,463.77208 C 282.8552,475.85676 283.33295,482.48461 284.64055,488.54026 C 288.50827,506.4521 296.26786,524.56764 306.53674,539.65908 C 313.95201,550.55678 333.7567,569.99825 345.2446,577.65705 C 381.29427,601.69076 424.3999,611.80621 466.98558,606.2256 z M 423.28033,506.88902 C 418.2533,505.25701 414.5954,502.83054 410.55597,498.44827 C 402.36652,489.56377 398.87845,479.20599 398.87845,463.77208 C 398.87845,448.33361 402.36617,437.98077 410.56289,429.08838 C 416.21166,422.96019 421.46155,420.38104 428.2868,420.38104 C 435.11205,420.38104 440.36194,422.96019 446.01071,429.08838 C 454.20743,437.98077 457.69515,448.33361 457.69515,463.77208 C 457.69515,479.21055 454.20743,489.56339 446.01071,498.45578 C 439.41324,505.61318 430.05041,509.08691 423.28033,506.88902 z"
       style="fill:#987433;stroke-width:5.9000001;stroke-miterlimit:4;stroke-dasharray:none" />
    <path
       id="path2455"
       d="M 126.1448,689.02208 C 106.11873,675.20448 99.286797,669.99309 99.286797,668.53483 C 99.286797,667.88904 106.25364,643.04074 114.76867,613.31637 C 145.18503,507.13854 144.75376,508.77208 142.3697,508.77208 C 141.02291,508.77208 134.71169,511.60228 116.7868,520.24447 C 74.050147,540.84922 74.675547,540.58941 72.661947,538.57581 C 71.337457,537.25131 71.342547,530.47777 72.706947,478.67726 C 75.206077,383.79578 75.187697,384.17174 77.426877,382.14531 C 79.273657,380.474 79.658377,380.55275 86.570787,384.01719 C 90.539587,386.00633 98.061797,389.63343 103.2868,392.07742 C 118.259,399.08066 131.77931,405.49386 145.02542,411.87567 C 151.75665,415.1187 157.70332,417.77208 158.24023,417.77208 C 160.16555,417.77208 161.20222,413.81593 166.22724,387.29217 C 169.61531,369.40878 171.88228,359.77156 172.98848,358.54922 C 174.57581,356.79525 177.92338,356.71472 245.46873,356.80553 L 316.28479,356.90074 L 323.27245,350.64453 C 340.23764,335.45522 364.76999,321.3468 386.40823,314.33548 C 408.77555,307.08792 435.33054,303.82217 457.08748,305.64329 C 483.8484,307.88325 504.08484,313.43458 526.7868,324.76344 C 567.09253,344.87703 596.13931,377.52658 609.18835,417.38552 C 614.64603,434.05629 616.60505,446.30866 616.60505,463.77208 C 616.60505,499.16423 604.88998,531.32471 581.53964,560.03445 C 574.8916,568.20836 562.52775,579.97555 554.34737,585.91446 C 550.15869,588.95542 548.33629,590.94467 548.31595,592.49808 C 548.29992,593.72238 552.42729,605.10403 557.4879,617.79064 L 566.68899,640.85721 L 537.24425,670.31464 L 507.79951,699.77208 L 324.76223,699.77208 L 141.72494,699.77208 L 126.1448,689.02208 z M 528.76571,668.79318 C 543.67467,653.87451 552.36208,644.47386 551.7579,643.91331 C 551.1855,643.38225 545.65479,643.36809 538.2868,643.87883 C 531.4118,644.35539 507.3368,645.87619 484.7868,647.25839 C 436.85233,650.19653 340.44439,656.14429 249.2868,661.78724 C 213.8118,663.98326 169.7118,666.70528 151.2868,667.83617 C 132.8618,668.96705 117.2243,670.07615 116.5368,670.30082 C 115.8493,670.52549 115.2868,671.14622 115.2868,671.68021 C 115.2868,672.21421 121.90495,677.17833 129.99381,682.7116 L 144.70081,692.77208 L 324.75162,692.77208 L 504.80243,692.77208 L 528.76571,668.79318 z M 156.40928,662.29659 C 178.06692,660.93506 225.0368,658.01462 260.7868,655.80672 C 547.02662,638.12867 552.47304,637.783 554.5368,637.16302 C 555.4993,636.87388 556.2868,636.22301 556.2868,635.71664 C 556.2868,633.91753 542.11827,599.24951 540.84925,597.94354 C 539.78037,596.84355 538.11575,597.39377 531.17255,601.14203 C 515.34961,609.68401 495.90102,616.25371 475.59726,619.91527 C 458.74824,622.95381 429.76735,622.94281 412.83691,619.89144 C 381.25893,614.20015 353.81406,602.0691 330.68464,583.57889 C 313.47113,569.818 295.32347,547.20576 286.27087,528.2387 C 282.23521,519.78317 275.2868,500.34949 275.2868,497.51788 C 275.2868,496.69238 274.66628,495.50199 273.90788,494.87257 C 272.77759,493.93451 271.96147,495.48126 269.38164,503.45094 C 265.15747,516.50034 260.26575,524.95007 252.36477,532.84508 C 234.02907,551.16693 210.54453,551.16693 192.20883,532.84508 C 176.84513,517.49299 169.20619,492.54649 172.20608,467.52208 C 174.48413,448.51914 181.01503,433.88442 192.20883,422.69908 C 206.38041,408.53819 223.40153,405.2499 240.22363,413.42313 C 250.93148,418.62568 263.32899,433.7351 267.90194,447.15598 C 268.76702,449.69483 269.87393,451.77208 270.36175,451.77208 C 271.3322,451.77208 271.25702,452.06894 274.28726,436.27208 C 278.99156,411.74827 288.20055,391.74095 305.26475,368.97077 C 307.36175,366.17257 307.51385,365.52721 306.26279,364.73608 C 305.39057,364.18451 279.35196,363.79644 242.60823,363.78739 C 191.32917,363.77476 180.1899,364.01183 179.06194,365.1398 C 178.28585,365.91589 175.37851,379.00106 172.34081,395.3898 C 169.39644,411.27505 166.58894,425.05958 166.10192,426.02208 C 165.6149,426.98458 164.31981,427.77208 163.22394,427.77208 C 161.05325,427.77208 149.39904,422.57643 122.2868,409.52157 C 88.095757,393.05819 84.269067,391.38981 83.185067,392.47381 C 82.533007,393.12587 81.642177,413.44124 80.776977,447.3904 C 80.021727,477.02532 79.188817,506.92932 78.926057,513.84373 C 78.663297,520.75814 78.826537,527.02737 79.288817,527.77535 C 80.182857,529.22193 82.126647,528.41609 110.83771,514.69608 C 142.0576,499.77718 148.6612,496.77208 150.22513,496.77208 C 152.29935,496.77208 154.27613,498.67876 154.32034,500.72208 C 154.35498,502.32299 147.07328,528.27588 123.16262,611.77208 C 115.52374,638.44708 109.27669,660.98458 109.28028,661.85541 C 109.29515,665.46685 106.40982,665.43984 156.40928,662.29659 z M 96.289817,487.52208 C 96.291477,485.73458 97.186187,471.44708 98.278057,455.77208 C 99.369917,440.09708 100.26857,426.93458 100.27504,426.52208 C 100.29305,425.37353 104.0815,425.63089 104.82324,426.83105 C 105.18321,427.41348 104.69593,439.2976 103.74041,453.24021 C 102.7849,467.18282 102.29613,479.35401 102.65427,480.28731 C 103.43157,482.31292 105.75954,481.88715 113.81343,478.24635 C 116.82378,476.8855 121.8292,474.62235 124.93658,473.21712 C 128.04396,471.8119 131.86896,470.40565 133.43658,470.09212 C 135.96278,469.58688 136.2868,469.80658 136.2868,472.02464 C 136.2868,473.40104 135.7243,474.95502 135.0368,475.47791 C 132.1752,477.65439 101.08186,490.77208 98.784487,490.77208 C 96.632627,490.77208 96.287217,490.32208 96.289817,487.52208 z M 464.31303,607.74776 C 477.73944,606.12476 487.85851,603.88637 501.05673,599.61987 C 512.81849,595.81772 535.34284,585.20462 541.06057,580.77073 C 542.56,579.60798 546.9368,576.35056 550.7868,573.53202 C 554.6368,570.71347 561.8368,564.29891 566.7868,559.27744 C 629.41516,495.74484 617.88961,398.14792 541.7868,347.58059 C 490.96404,313.81085 422.40445,309.38395 366.7868,336.28081 C 334.10858,352.08409 309.31523,376.16901 294.73681,406.27208 C 264.79472,468.0997 286.26608,539.74993 346.7868,579.96357 C 362.93352,590.69244 384.40438,599.87422 403.7868,604.33901 C 421.59583,608.44136 446.82218,609.86208 464.31303,607.74776 z M 422.03477,505.39809 C 408.59629,500.4134 399.86232,484.01646 399.86232,463.77208 C 399.86232,439.94216 412.33657,421.30541 428.2868,421.30541 C 444.23703,421.30541 456.71128,439.94216 456.71128,463.77208 C 456.71128,481.49715 449.74895,496.9007 438.85044,503.28765 C 433.53601,506.40212 426.96492,507.22681 422.03477,505.39809 z"
       style="opacity:1;fill:#060604;stroke:#000000;stroke-width:6;stroke-linecap:round;stroke-miterlimit:4;stroke-dasharray:none;stroke-opacity:1" />
  </g>
</svg>
